# xmcd CD database file
#
# Track frame offsets:
#	150
#	30878
#	45857
#	70331
#	94475
#	126297
#	159566
#	191103
#	214285
#	233733
#	267835
#	291949
#
# Disc length: 4485 seconds
#
# Revision: 0
# Processed by: cddbd v1.5.2PL0 Copyright (c) Steve Scherf et al.
# Submitted via: CDex 1.51
#
DISCID=ac11830c
DTITLE=James Carter Organ Trio - At The Crossroads
DYEAR=2011
DGENRE=Jazz
TTITLE0=Oh Gee 
TTITLE1=JC Off The Set
TTITLE2=Aged Pain
TTITLE3=The Walking Blues
TTITLE4=My Whole Life Through
TTITLE5=Walking The Dog
TTITLE6=Lettuce Toss Yo Salad
TTITLE7=Misterio
TTITLE8=Ramblin' Blues
TTITLE9=Come Sunday
TTITLE10=Tis The Old Ship of Zion
TTITLE11=Hard Blues
EXTD=YEAR: 2011
EXTT0=
EXTT1=
EXTT2=
EXTT3=
EXTT4=
EXTT5=
EXTT6=
EXTT7=
EXTT8=
EXTT9=
EXTT10=
EXTT11=
PLAYORDER=
